<svg version="1.1" id="Layer_1" xmlns="http://www.w3.org/2000/svg" xmlns:xlink="http://www.w3.org/1999/xlink" x="0px" y="0px"
	 width="100%" viewBox="0 0 784 784" enable-background="new 0 0 784 784" xml:space="preserve">
<path fill="#000000" opacity="1.000000" stroke="none" 
	d="
M242.154266,586.385864 
	C218.820786,590.630737 195.935791,590.275574 173.315903,584.931152 
	C99.743408,567.547729 52.677410,521.795532 31.678467,449.682709 
	C19.757004,408.743042 24.098911,368.313599 40.299492,329.014923 
	C58.001698,286.073730 87.892647,254.307556 128.871078,233.018707 
	C148.982620,222.570480 170.559753,216.373825 193.273834,214.664871 
	C266.797882,209.133072 323.128204,239.094360 363.665222,299.237488 
	C401.839386,355.874908 438.098969,413.803650 476.329742,470.401764 
	C502.151886,508.629700 539.414917,527.889160 585.641052,524.223145 
	C635.010376,520.307739 669.932861,493.442108 688.784485,447.936432 
	C715.390015,383.713623 683.796631,310.651611 618.765808,285.887146 
	C576.235901,269.691284 536.714783,277.608856 500.995758,305.717377 
	C483.922852,319.152649 473.566498,337.707245 461.878357,355.290283 
	C457.750977,361.499298 453.759644,367.798767 449.875519,373.795410 
	C447.878143,373.781769 447.364471,372.642395 446.748322,371.686127 
	C435.469849,354.181152 424.222717,336.655884 412.905762,319.175842 
	C411.711121,317.330627 411.227753,315.874512 412.537628,313.752686 
	C429.604584,286.106293 449.692535,261.307098 477.448334,243.516739 
	C502.248688,227.620667 528.982239,217.274979 558.474976,214.599228 
	C621.793640,208.854584 673.653748,231.700500 715.433167,278.471558 
	C740.040955,306.019318 754.765076,338.703583 759.715393,375.205841 
	C767.522827,432.775635 751.885132,483.721222 713.417969,527.328918 
	C690.778381,552.994019 663.265564,571.779480 630.223145,581.247620 
	C564.885071,599.970032 506.588898,586.046631 455.034088,542.123474 
	C439.071442,528.523743 427.232361,511.658813 415.868561,494.387329 
	C382.811798,444.145508 349.698273,393.939056 317.015320,343.454407 
	C305.751770,326.055847 293.422424,309.849152 275.868134,298.450531 
	C236.156601,272.664398 194.941711,270.737213 153.309418,292.962158 
	C118.528450,311.529602 97.600807,341.136993 90.854691,379.883331 
	C80.369881,440.102814 114.257378,495.563843 166.490417,516.206604 
	C223.732605,538.829041 283.990265,513.945007 312.984802,464.834991 
	C319.586151,453.653839 326.870026,442.875397 333.856201,431.922119 
	C334.469482,430.960602 334.972961,429.829468 336.381134,429.585175 
	C338.293640,430.190887 338.916382,432.068420 339.872467,433.543945 
	C350.744263,450.322021 361.541290,467.148590 372.417236,483.923981 
	C373.774078,486.016876 374.516052,487.758087 373.050537,490.279694 
	C351.712006,526.994385 322.811005,555.580566 284.012329,573.640320 
	C270.781982,579.798706 256.848694,583.592468 242.154266,586.385864 
z"/>
<path fill="#000000" opacity="1.000000" stroke="none" 
	d="
M207.061340,425.888977 
	C185.350189,394.422302 163.843109,363.252411 142.480499,332.291901 
	C143.806717,330.249512 145.266617,330.703491 146.508423,330.696472 
	C155.334213,330.646454 164.162689,330.774475 172.985168,330.593872 
	C176.010086,330.531982 177.859116,331.600220 179.544891,334.067535 
	C204.246597,370.221100 229.017670,406.327332 253.803909,442.423065 
	C260.495544,452.167999 267.297974,461.836792 274.035065,471.550568 
	C274.947906,472.866791 276.289856,474.012054 276.139313,475.792755 
	C274.542603,477.467743 272.612701,477.023071 270.847778,477.038208 
	C263.520935,477.101105 256.182159,476.839844 248.870270,477.180634 
	C244.207184,477.397980 241.244949,475.884552 238.600433,471.919586 
	C228.347321,456.546967 217.740494,441.410248 207.061340,425.888977 
z"/>
<path fill="#000000" opacity="1.000000" stroke="none" 
	d="
M200.121948,443.051208 
	C193.135666,453.216858 186.245880,463.014130 179.609573,472.980133 
	C177.644745,475.930786 175.455460,477.248657 171.859299,477.163086 
	C163.711960,476.969269 155.555481,477.175842 147.402695,477.180237 
	C145.780304,477.181122 144.064560,477.550903 141.845901,475.787933 
	C156.942978,453.595215 172.393539,431.573761 186.870361,408.952698 
	C190.432495,410.384491 191.504623,413.159760 193.068405,415.419586 
	C196.191177,419.932312 198.784058,424.869232 202.302124,429.034363 
	C205.658188,433.007721 205.642578,436.228455 202.287811,439.868591 
	C201.507675,440.715118 200.966492,441.781921 200.121948,443.051208 
z"/>
<path fill="#000000" opacity="1.000000" stroke="none" 
	d="
M258.001587,330.671722 
	C264.405304,330.671326 270.309692,330.671326 277.564606,330.671326 
	C261.713379,354.041626 246.667068,376.225159 231.080307,399.205536 
	C225.258942,390.498474 219.830338,382.405731 214.437378,374.289307 
	C213.394531,372.719788 214.422638,371.428955 215.255936,370.189178 
	C223.519638,357.894714 231.818848,345.624023 240.044632,333.304321 
	C241.407394,331.263336 243.129822,330.559387 245.513702,330.637939 
	C249.505936,330.769501 253.505692,330.672791 258.001587,330.671722 
z"/>
</svg>